#!OML:ASF E:\Mandelcareful walks\Project 1\Capture day 1\Session 1\Subject1.ASF
:FULLY-SPECIFIED
:DEGREES
188
root -22.5921 14.1189 -1.98215 -148.697 122.034 -163.911
lowerback 35.7568 -1.25891 5.10207
upperback 8.39067 0.833589 -0.424969
thorax -8.48046 0.619938 -3.48907
lowerneck -33.3396 11.0276 3.90606
upperneck 25.8666 22.1773 -20.2865
head 18.7987 6.69166 -3.84466
rclavicle -5.24792e-014 7.15625e-014
rhumerus -25.11 11.3707 -85.9351
rradius 47.3101
rwrist -68.47
rhand 8.59556 -39.0174
rfingers 7.12502
rthumb 33.7931 -65.8469
lclavicle -5.24792e-014 7.15625e-014
lhumerus 74.0361 -84.6533 26.3683
lradius 47.0793
lwrist 3.05685
lhand -36.6445 -31.5452
lfingers 7.12502
lthumb -9.73162 -1.79004
rfemur -44.3466 -9.59772 -2.30864
rtibia 71.8701
rfoot -34.9872 -18.7529
rtoes -33.2149
lfemur -65.5732 13.6996 -18.6589
ltibia 52.0066
lfoot -6.09156 5.0884
ltoes -12.6124
189
root -22.4242 14.0167 -2.08227 -148.774 122.246 -163.695
lowerback 36.4697 -1.25579 4.77425
upperback 8.4818 0.762916 -0.567483
thorax -8.64687 0.598076 -3.44496
lowerneck -33.3939 11.0005 3.74114
upperneck 25.4746 22.0808 -20.2819
head 18.5524 6.66382 -3.81778
rclavicle 2.8625e-014 4.29375e-014
rhumerus -25.1781 11.2217 -85.8799
rradius 47.6068
rwrist -68.645
rhand 8.81133 -38.4438
rfingers 7.12502
rthumb 33.9981 -65.228
lclavicle 2.8625e-014 4.29375e-014
lhumerus 91.8106 -84.3114 8.16229
lradius 47.7684
lwrist 5.83952
lhand -39.3334 -32.0296
lfingers 7.12502
lthumb -12.3252 -2.41284
rfemur -43.886 -9.27532 -3.44923
rtibia 72.5182
rfoot -35.5023 -18.5187
rtoes -32.8069
lfemur -66.6057 13.5119 -19.2132
ltibia 54.435
lfoot -5.85971 4.70195
ltoes -15.0943
190
root -22.2637 13.9213 -2.18038 -148.928 122.233 -163.432
lowerback 37.4654 -1.32261 4.51912
upperback 8.56043 0.656527 -0.664088
thorax -8.92097 0.559926 -3.37752
lowerneck -33.4377 11.0076 3.6872
upperneck 25.0725 21.9839 -20.2998
head 18.3222 6.64594 -3.81952
rclavicle 2.22639e-014 5.725e-014
rhumerus -25.223 10.718 -85.8033
rradius 47.8617
rwrist -68.7777
rhand 9.35708 -38.0382
rfingers 7.12502
rthumb 34.5163 -64.7058
lclavicle 2.22639e-014 5.725e-014
lhumerus 94.5363 -83.7502 5.27062
lradius 47.6124
lwrist 5.03337
lhand -38.314 -31.344
lfingers 7.12502
lthumb -11.3421 -1.6707
rfemur -43.1528 -8.84843 -4.45232
rtibia 73.12
rfoot -36.0946 -18.0777
rtoes -30.6179
lfemur -67.595 13.2862 -19.7662
ltibia 56.9264
lfoot -5.19285 4.85953
ltoes -15.3471
191
root -22.0996 13.8294 -2.28048 -149.002 122.226 -163.2
lowerback 38.461 -1.23161 4.15789
upperback 8.5442 0.71317 -0.590903
thorax -9.28096 0.589071 -3.13842
lowerneck -33.5065 10.9623 3.52832
upperneck 24.8194 21.9276 -20.3268
head 18.1773 6.62196 -3.80523
rclavicle 1.17681e-013 -4.85035e-014
rhumerus -25.4652 9.99302 -85.4866
rradius 48.162
rwrist -68.973
rhand 10.1494 -38.0063
rfingers 7.12502
rthumb 35.2681 -64.4993
lclavicle 1.17681e-013 -4.85035e-014
lhumerus 98.8207 -83.2814 1.1689
lradius 47.4003
lwrist 4.52301
lhand -37.2967 -30.7509
lfingers 7.12502
lthumb -10.3609 -1.02617
rfemur -42.5115 -8.36335 -5.3686
rtibia 73.6328
rfoot -36.3595 -19.1238
rtoes -30.7999
lfemur -68.6546 13.1242 -20.4903
ltibia 59.3403
lfoot -4.56173 5.07864
ltoes -15.6694
192
root -21.9151 13.7367 -2.38615 -148.988 122.501 -162.98
lowerback 39.293 -0.982726 3.70809
upperback 8.4982 0.901884 -0.537883
thorax -9.6056 0.676855 -2.92947
lowerneck -33.4371 10.6718 2.7284
upperneck 24.5425 21.5731 -19.7983
head 17.7267 6.50286 -3.52933
rclavicle -6.36111e-014 4.45278e-014
rhumerus -25.841 9.25976 -85.0803
rradius 48.391
rwrist -69.677
rhand 11.1428 -38.1463
rfingers 7.12502
rthumb 36.2095 -64.4111
lclavicle -6.36111e-014 4.45278e-014
lhumerus 97.1052 -83.0004 3.34125
lradius 46.718
lwrist 1.47571
lhand -34.3517 -30.5315
lfingers 7.12502
lthumb -7.51909 -0.685158
rfemur -41.9811 -7.71992 -6.47732
rtibia 74.0612
rfoot -36.758 -20.4864
rtoes -32.7176
lfemur -69.7295 13.1562 -21.4909
ltibia 61.8543
lfoot -4.492 4.81751
ltoes -12.7908
193
root -21.7164 13.6346 -2.49714 -148.966 122.829 -162.858
lowerback 39.8539 -0.867248 3.53099
upperback 8.5662 0.991762 -0.678862
thorax -9.7091 0.727009 -3.02885
lowerneck -33.3843 10.5297 2.49076
upperneck 24.1319 21.3041 -19.7046
head 17.4091 6.42534 -3.50703
rclavicle 7.95139e-015 1.43125e-014
rhumerus -25.9858 8.58594 -84.915
rradius 48.4764
rwrist -70.4717
rhand 11.9121 -37.8354
rfingers 7.12502
rthumb 36.9376 -63.916
lclavicle 7.95139e-015 1.43125e-014
lhumerus 107.204 -82.2262 -6.8388
lradius 46.7298
lwrist 2.3706
lhand -35.7305 -30.1249
lfingers 7.12502
lthumb -8.8497 -0.330443
rfemur -41.523 -6.96376 -7.6376
rtibia 74.4447
rfoot -37.3593 -21.3092
rtoes -33.8728
lfemur -70.8091 13.2339 -22.5085
ltibia 64.4358
lfoot -5.31548 4.49608
ltoes -12.5289
194
root -21.5216 13.5124 -2.6086 -148.879 123.004 -162.602
lowerback 40.4364 -0.8945 3.49959
upperback 8.70049 0.966302 -0.866297
thorax -9.74579 0.730299 -3.20644
lowerneck -33.2008 10.4513 2.46776
upperneck 23.4898 21.0516 -19.8545
head 17.0362 6.37296 -3.61066
rclavicle 1.27222e-014 3.49861e-014
rhumerus -25.8588 7.91219 -84.9116
rradius 48.4883
rwrist -70.5754
rhand 11.7675 -37.6283
rfingers 7.12502
rthumb 36.8008 -63.744
lclavicle 1.27222e-014 3.49861e-014
lhumerus 120.23 -80.6102 -20.1382
lradius 47.2203
lwrist 6.05026
lhand -30.7223 -28.9089
lfingers 7.12502
lthumb -4.01499 1.03304
rfemur -40.9816 -5.99262 -8.8108
rtibia 74.8312
rfoot -37.8797 -22.8977
rtoes -34.8579
lfemur -71.8383 13.2878 -23.5661
ltibia 66.976
lfoot -6.63101 4.15611
ltoes -12.1982
195
root -21.3442 13.4111 -2.7187 -148.481 122.945 -162.14
lowerback 40.938 -0.918036 3.38937
upperback 8.77762 0.926284 -0.915088
thorax -9.82146 0.723065 -3.18841
lowerneck -33.0784 10.2339 2.16534
upperneck 22.953 20.6438 -19.7033
head 16.6148 6.25668 -3.58788
rclavicle 6.20208e-014 -9.54166e-015
rhumerus -25.5149 7.06149 -84.7954
rradius 48.0623
rwrist -70.7453
rhand 11.8233 -38.3135
rfingers 7.12502
rthumb 36.8535 -64.4156
lclavicle 6.20208e-014 -9.54166e-015
lhumerus 125.201 -79.29 -24.9241
lradius 46.96
lwrist 7.58229
lhand -39.0282 -29.3251
lfingers 7.12502
lthumb -12.0308 0.309076
rfemur -40.4263 -5.30542 -9.86457
rtibia 75.0969
rfoot -38.2198 -24.5045
rtoes -35.0781
lfemur -72.9194 13.1826 -24.6982
ltibia 69.2899
lfoot -7.88222 3.7293
ltoes -11.6475
196
root -21.1764 13.3377 -2.82784 -147.961 122.584 -161.884
lowerback 41.3236 -0.824549 3.15806
upperback 8.60911 1.00556 -0.584643
thorax -10.1339 0.747275 -2.75243
lowerneck -32.9786 9.89867 1.55176
upperneck 22.7113 20.242 -19.3634
head 16.2801 6.11331 -3.44787
rclavicle 3.33958e-014 -2.38542e-014
rhumerus -25.4515 6.42291 -84.3763
rradius 47.3841
rwrist -71.3369
rhand 12.4822 -38.7627
rfingers 7.12502
rthumb 37.4766 -64.7025
lclavicle 3.33958e-014 -2.38542e-014
lhumerus 122.887 -79.4374 -21.5855
lradius 45.5774
lwrist 4.56761
lhand -34.099 -28.0186
lfingers 7.12502
lthumb -7.27511 1.8363
rfemur -39.931 -4.93434 -10.549
rtibia 75.1509
rfoot -38.5288 -25.74
rtoes -35.6966
lfemur -74.1647 12.7895 -25.5718
ltibia 71.3161
lfoot -9.01343 3.39943
ltoes -11.7623
197
root -20.9911 13.2548 -2.93148 -147.925 122.362 -162.064
lowerback 41.6195 -0.786714 3.09659
upperback 8.57766 1.06384 -0.42929
thorax -10.2604 0.771089 -2.58103
lowerneck -32.9144 9.6707 1.1557
upperneck 22.3153 19.8633 -19.0739
head 15.9253 6.00078 -3.351
rclavicle -6.36111e-014 6.52014e-014
rhumerus -25.2923 5.89514 -84.227
rradius 46.6616
rwrist -71.5679
rhand 13.3273 -38.4541
rfingers 7.12502
rthumb 38.2749 -64.178
lclavicle -6.36111e-014 6.52014e-014
lhumerus 119.633 -79.5191 -17.517
lradius 44.02
lwrist 1.27357
lhand -29.6753 -27.5339
lfingers 7.12502
lthumb -3.00385 2.42467
rfemur -39.2813 -4.17082 -11.1063
rtibia 75.041
rfoot -39.005 -26.7263
rtoes -36.1071
lfemur -75.1836 12.5406 -26.1355
ltibia 73.1954
lfoot -10.1295 3.00251
ltoes -11.3707
